<?xml version="1.0" encoding="utf-8"?>
<!-- Generator: Adobe Illustrator 26.3.0, SVG Export Plug-In . SVG Version: 6.00 Build 0)  -->
<svg version="1.1" id="Capa_1" xmlns="http://www.w3.org/2000/svg" xmlns:xlink="http://www.w3.org/1999/xlink" x="0px" y="0px"
	 viewBox="0 0 757.6 144" style="enable-background:new 0 0 757.6 144;" xml:space="preserve">
<style type="text/css">
	.st0{fill:#F995D6;}
	.st1{fill:#D83535;}
	.st2{fill:#F5A042;}
	.st3{fill:#FFDD28;}
	.st4{fill:#2CA340;}
	.st5{fill:#7A6AAD;}
	.st6{fill:#1E1E1E;}
	.st7{fill:#735657;}
	.st8{fill:#70E5E1;}
	.st9{fill:#3CBDD3;}
</style>
<g>
	<rect x="-27" y="27" transform="matrix(-1.836970e-16 1 -1 -1.836970e-16 45.045 27.0344)" class="st0" width="72" height="18"/>
	<rect x="99" y="99" transform="matrix(-1.836970e-16 1 -1 -1.836970e-16 243.0238 -26.9762)" class="st1" width="72" height="18"/>
	<rect x="81" y="27" transform="matrix(-1.836970e-16 1 -1 -1.836970e-16 152.9868 -81.0132)" class="st2" width="72" height="18"/>
	<rect x="63" y="99" transform="matrix(-1.836970e-16 1 -1 -1.836970e-16 207.0132 9.0132)" class="st3" width="72" height="18"/>
	<rect x="81" y="117" transform="matrix(-1.836970e-16 1 -1 -1.836970e-16 225.0132 26.9894)" class="st4" width="36" height="18"/>
	<rect x="27" y="99" transform="matrix(-1.836970e-16 1 -1 -1.836970e-16 171.0265 45.0265)" class="st5" width="72" height="18"/>
	
		<rect x="8.8" y="26.8" transform="matrix(-1.836970e-16 1 -1 -1.836970e-16 80.778 -8.7515)" class="st6" width="72" height="18.5"/>
	
		<rect x="26.8" y="8.8" transform="matrix(-1.836970e-16 1 -1 -1.836970e-16 62.7912 -26.7621)" class="st7" width="36" height="18.5"/>
	<rect x="-9" y="99" transform="matrix(-1.836970e-16 1 -1 -1.836970e-16 135.0164 81.027)" class="st8" width="72" height="18"/>
	<rect x="45" y="27" transform="matrix(-1.836970e-16 1 -1 -1.836970e-16 117.0132 -44.9868)" class="st9" width="72" height="18"/>
</g>
<g>
	<path class="st6" d="M252,48.6v47.9h-10.9V69.3l-11.3,27.2h-10l-11.3-27.2v27.2h-10.9V48.6h13.7l13.5,31.8l13.5-31.8H252z"/>
	<path class="st6" d="M295.7,63v33.5h-10.6v-3.1c-2.4,2.7-6.1,3.9-11,3.9c-3,0-5.7-0.7-7.9-2c-2.3-1.3-4.1-3.4-5.5-6
		c-1.3-2.7-2-5.8-2-9.6c0-3.7,0.7-6.9,2-9.6c1.3-2.7,3.2-4.7,5.5-6c2.3-1.3,5-2,7.9-2c4.9,0,8.6,1.3,11,3.9v-3L295.7,63L295.7,63z
		 M283.8,86.4c1.4-1.5,2.1-3.7,2.1-6.6s-0.8-5.1-2.1-6.6c-1.4-1.5-3.5-2.3-6.3-2.3c-2.8,0-4.9,0.8-6.3,2.3c-1.4,1.5-2.1,3.7-2.1,6.6
		s0.8,5.1,2.1,6.6c1.4,1.5,3.5,2.3,6.3,2.3C280.3,88.6,282.4,87.8,283.8,86.4z"/>
	<path class="st6" d="M330.9,64.2c1.6,1.4,2.7,3.8,3.1,7.2l-10.3,4.2c-0.1-1.4-0.4-2.5-1-3.3c-0.5-0.7-1.3-1.1-2.4-1.1
		c-2.7,0-4.6,1.5-5.9,4.7v20.6h-10.6V63h10.6v4.4c1-1.6,2.3-3,4-3.9c1.7-1,3.6-1.4,5.6-1.4C326.9,62.1,329.2,62.7,330.9,64.2z"/>
	<path class="st6" d="M345.5,57.7c-2.1,0-3.7-0.5-4.9-1.4c-1.1-1-1.7-2.3-1.7-4.1c0-1.8,0.6-3.3,1.6-4.2c1.1-1,2.7-1.4,4.7-1.4
		c2.1,0,3.7,0.5,4.8,1.4c1.1,1,1.6,2.3,1.6,4.2c0,1.8-0.6,3.2-1.6,4.1C349.1,57.3,347.5,57.7,345.5,57.7z M340,63v33.5h10.6V63H340z
		"/>
	<path class="st6" d="M386.8,95.5c-2.5,1.3-5.7,1.9-9.9,1.9c-6,0-10.7-1.5-13.9-4.6c-3.3-3.1-4.8-7.5-4.8-13.2s1.6-10.2,4.8-13.2
		c3.3-3.1,7.9-4.6,13.9-4.6c4.1,0,7.6,0.7,10.1,1.9s4.5,3.4,5.8,6.1l-9.7,3.7c-0.7-1.1-1.4-1.9-2.4-2.3c-1-0.4-2.2-0.6-3.8-0.6
		c-2.8,0-4.9,0.8-6.3,2.2c-1.4,1.4-2.1,3.7-2.1,6.6s0.8,5.1,2.1,6.6c1.4,1.5,3.5,2.3,6.3,2.3c1.6,0,2.9-0.2,3.7-0.7
		c0.9-0.4,1.7-1.2,2.5-2.4l9.7,3.7C391.4,92.1,389.3,94.2,386.8,95.5z"/>
	<path class="st6" d="M401,92.9c-3.3-3.1-4.8-7.5-4.8-13.2s1.6-10.2,4.8-13.2c3.3-3.1,7.9-4.6,13.9-4.6s10.7,1.5,13.9,4.6
		c3.3,3.1,4.8,7.5,4.8,13.2s-1.6,10.2-4.8,13.2c-3.3,3.1-7.9,4.6-13.9,4.6S404.2,96,401,92.9z M421.3,86.3c1.4-1.5,2.1-3.7,2.1-6.6
		s-0.8-5.1-2.1-6.6c-1.4-1.5-3.5-2.3-6.3-2.3c-2.8,0-4.9,0.8-6.3,2.2c-1.4,1.4-2.1,3.7-2.1,6.6s0.8,5.1,2.1,6.6
		c1.4,1.5,3.5,2.3,6.3,2.3C417.7,88.6,419.8,87.8,421.3,86.3z"/>
	<path class="st6" d="M463.1,71.6h-8v24.8h-10.6V71.6h-7.9v-7.8h7.9V48.5h10.6v15.3h8V71.6z"/>
	<path class="st6" d="M502.2,82.6h-26.1c0.5,1.9,1.3,3.4,2.8,4.4c1.4,1.1,3.3,1.5,5.5,1.5c3.2,0,5.5-1,6.9-3l9.8,3.7
		c-1.4,2.7-3.5,4.7-6.3,6.1c-2.8,1.3-6.2,2-10.3,2c-6,0-10.7-1.5-13.9-4.6c-3.2-3.1-4.8-7.5-4.8-13.2s1.6-10.2,4.8-13.2
		c3.3-3.1,7.9-4.6,13.9-4.6c12,0,17.9,5.9,17.9,17.7L502.2,82.6L502.2,82.6z M476.4,75.7h15c-0.5-1.6-1.2-2.9-2.4-3.6
		c-1.1-0.8-2.8-1.1-4.8-1.1C480.1,71,477.5,72.5,476.4,75.7z"/>
	<path class="st6" d="M535.2,95.5c-2.5,1.3-5.7,1.9-9.9,1.9c-6,0-10.7-1.5-13.9-4.6c-3.2-3.1-4.8-7.5-4.8-13.2s1.6-10.2,4.8-13.2
		c3.2-3.1,7.9-4.6,13.9-4.6c4.1,0,7.5,0.7,10.1,1.9s4.5,3.4,5.8,6.1l-9.7,3.7c-0.7-1.1-1.4-1.9-2.4-2.3s-2.2-0.6-3.8-0.6
		c-2.8,0-4.9,0.8-6.3,2.2c-1.4,1.4-2.1,3.7-2.1,6.6s0.8,5.1,2.1,6.6c1.4,1.5,3.5,2.3,6.3,2.3c1.6,0,2.9-0.2,3.7-0.7
		c0.9-0.4,1.7-1.2,2.5-2.4l9.7,3.7C539.7,92.1,537.7,94.2,535.2,95.5z"/>
	<path class="st6" d="M580.3,63v33.5h-10.6v-3.1c-2.4,2.7-6.1,3.9-11,3.9c-3,0-5.6-0.7-7.9-2c-2.3-1.3-4.1-3.4-5.5-6
		c-1.3-2.7-2-5.8-2-9.6c0-3.7,0.7-6.9,2-9.6c1.3-2.7,3.2-4.7,5.5-6c2.3-1.3,5-2,7.9-2c4.9,0,8.6,1.3,11,3.9v-3L580.3,63L580.3,63z
		 M568.4,86.4c1.4-1.5,2.1-3.7,2.1-6.6s-0.8-5.1-2.1-6.6c-1.4-1.5-3.5-2.3-6.3-2.3c-2.8,0-4.9,0.8-6.3,2.3c-1.4,1.5-2.1,3.7-2.1,6.6
		s0.8,5.1,2.1,6.6c1.4,1.5,3.5,2.3,6.3,2.3C564.9,88.6,567,87.8,568.4,86.4z"/>
	<path class="st6" d="M627.7,58.5v12.9H647v10h-19.3v15.2h-11.3V48.7h36.8v10h-25.5V58.5z"/>
	<path class="st6" d="M700.1,54.6c4,3.9,6,10,6,17.9c0,8-2,14.1-6,18c-4,3.9-10,5.9-17.7,5.9h-21.2V48.5h21.3
		C690.1,48.6,696.1,50.6,700.1,54.6z M694.4,72.5c0-4.7-1.1-8-3.1-10.3c-2-2.2-5.1-3.4-9.1-3.4h-10v27.4h10
		C690.4,86.3,694.4,81.7,694.4,72.5z"/>
	<path class="st6" d="M751.6,54.6c4,3.9,6,10,6,17.9c0,8-2,14.1-6,18s-10,5.9-17.7,5.9h-21.3V48.5h21.3
		C741.7,48.6,747.6,50.6,751.6,54.6z M746,72.5c0-4.7-1.1-8-3.1-10.3c-2-2.2-5.1-3.4-9.1-3.4h-10v27.4h10
		C741.9,86.3,746,81.7,746,72.5z"/>
</g>
</svg>
