<?xml version="1.0" encoding="utf-8"?>
<!-- Generator: Adobe Illustrator 26.3.0, SVG Export Plug-In . SVG Version: 6.00 Build 0)  -->
<svg version="1.1" id="Capa_1" xmlns="http://www.w3.org/2000/svg" xmlns:xlink="http://www.w3.org/1999/xlink" x="0px" y="0px"
	 viewBox="0 0 711.8 144" style="enable-background:new 0 0 711.8 144;" xml:space="preserve">
<style type="text/css">
	.st0{fill:#F995D6;}
	.st1{fill:#D83535;}
	.st2{fill:#F5A042;}
	.st3{fill:#FFDD28;}
	.st4{fill:#2CA340;}
	.st5{fill:#7A6AAD;}
	.st6{fill:#1E1E1E;}
	.st7{fill:#735657;}
	.st8{fill:#70E5E1;}
	.st9{fill:#3CBDD3;}
	.st10{fill:#222222;}
</style>
<g>
	<rect y="0" class="st0" width="18" height="72"/>
	<rect x="126" y="72" class="st1" width="18" height="72"/>
	<rect x="107.9" class="st2" width="18" height="72"/>
	<rect x="90" y="72" class="st3" width="18" height="72"/>
	<rect x="90" y="108" class="st4" width="18" height="36"/>
	<rect x="54" y="72" class="st5" width="18" height="72"/>
	<rect x="35.4" y="0.1" class="st6" width="18.5" height="72"/>
	<rect x="35.4" y="0.1" class="st7" width="18.5" height="36"/>
	<rect x="18" y="72" class="st8" width="18" height="72"/>
	<rect x="72" y="0" class="st9" width="18" height="72"/>
</g>
<g>
	<path class="st10" d="M196.7,49.6h16.5L224,75.4h-0.9l10.7-25.8h15.9V98H238V63.5h1.6l-12.4,29.9h-7.5l-12.4-29.8h0.9V98h-11.5
		V49.6z"/>
	<path class="st10" d="M270.4,99.1c-3.2,0-5.8-0.5-8-1.6s-3.8-2.5-4.9-4.3c-1.1-1.8-1.7-3.8-1.7-6.1c0-2.1,0.6-3.9,1.7-5.4
		c1.2-1.5,2.9-2.7,5.1-3.5c2.3-0.8,5.1-1.3,8.4-1.3c2,0,3.8,0.1,5.4,0.3s3.1,0.5,4.8,0.8v6.5c-1.2-0.3-2.4-0.5-3.7-0.6
		c-1.3-0.1-2.5-0.2-3.8-0.2c-1.7,0-3.1,0.3-4.1,0.8c-1,0.5-1.5,1.4-1.5,2.6c0,0.9,0.4,1.7,1.3,2.3c0.9,0.7,2.3,1,4.2,1
		c1.6,0,2.9-0.3,3.9-1c0.9-0.6,1.6-1.5,2-2.5c0.4-1,0.6-2,0.6-2.9h2.7c0,2.7-0.4,5.2-1.3,7.5s-2.2,4.1-4,5.5
		C275.7,98.4,273.3,99.1,270.4,99.1z M281.6,98l-1.5-9.5V75.2c0-1.8-0.3-3.2-1-4.1c-0.6-1-2-1.5-4.1-1.5c-1.2,0-2.3,0.2-3,0.6
		c-0.8,0.4-1.4,0.9-1.7,1.5c-0.4,0.6-0.6,1.3-0.6,2h-12.5c0-2.8,0.7-5.1,2-6.9c1.3-1.8,3.3-3.2,5.9-4.1c2.6-0.9,5.9-1.3,9.9-1.3
		c3.4,0,6.4,0.5,8.9,1.6c2.5,1.1,4.4,2.6,5.7,4.8c1.3,2.1,2,4.8,2,8V98H281.6z"/>
	<path class="st10" d="M299.5,98V62.2h11.5V98H299.5z M308.6,82.8c0-4.8,0.6-8.8,1.8-11.9c1.2-3.1,2.8-5.4,4.6-6.9
		c1.9-1.5,3.8-2.2,5.7-2.2c0.4,0,0.8,0,1.2,0.1c0.4,0,0.7,0.1,1.1,0.2l0.1,11.6c-0.6-0.1-1.2-0.1-1.8-0.2s-1.2-0.1-1.8-0.1
		c-1.7,0-3.2,0.3-4.4,0.9c-1.3,0.6-2.3,1.6-3,3s-1.1,3.2-1.1,5.5H308.6z"/>
	<path class="st10" d="M333.5,57.9c-2.2,0-3.9-0.6-5.1-1.7c-1.2-1.1-1.8-2.7-1.8-4.7c0-2,0.6-3.6,1.8-4.8s2.9-1.8,5.1-1.8
		c2.1,0,3.8,0.6,5,1.8c1.2,1.2,1.8,2.8,1.8,4.8c0,2-0.6,3.6-1.8,4.7C337.3,57.3,335.6,57.9,333.5,57.9z M327.7,98V62.2h11.5V98
		H327.7z"/>
	<path class="st10" d="M349,98V48.2h11.5V98H349z M373.7,98l-14.9-22.8l10.6-2.9L387.7,98H373.7z M359.1,74.2l12.2-11.7h15.4
		L359.1,86V74.2z"/>
	<path class="st10" d="M405.4,99.1c-3.3,0-6.3-0.7-9.1-2c-2.8-1.4-4.9-3.4-6.6-6.2s-2.5-6.3-2.5-10.6c0-4.4,0.8-8,2.5-10.8
		c1.6-2.8,3.8-4.8,6.6-6.2c2.8-1.3,5.8-2,9.1-2c3.2,0,6.2,0.7,8.9,2c2.7,1.3,4.9,3.4,6.5,6.2c1.6,2.8,2.5,6.4,2.5,10.8
		c0,4.3-0.8,7.8-2.5,10.6c-1.6,2.8-3.8,4.8-6.5,6.2C411.5,98.4,408.6,99.1,405.4,99.1z M404.9,89.1c1.1,0,2.2-0.3,3.2-0.9
		c1-0.6,1.9-1.5,2.6-2.8c0.7-1.3,1-3,1-5.1c0-3.3-0.6-5.6-1.8-7c-1.2-1.3-2.6-2-4.3-2c-1.1,0-2.2,0.3-3.3,0.9
		c-1.1,0.6-2,1.5-2.7,2.8c-0.7,1.3-1.1,3.1-1.1,5.3c0,3.2,0.6,5.5,1.9,6.8C401.8,88.4,403.3,89.1,404.9,89.1z"/>
	<path class="st10" d="M425,69.9v-7.5h23.9v7.5H425z M442.1,99.1c-2.3,0-4.4-0.4-6.3-1.2c-2-0.8-3.5-2.1-4.7-3.8
		c-1.2-1.7-1.8-4-1.8-6.7V53.5h11.6v33.4c0,2.2,1.1,3.2,3.2,3.2c0.7,0,1.4-0.1,2.1-0.2s1.6-0.4,2.6-0.8l1.7,8
		c-1.5,0.5-2.9,1-4.2,1.4S443.6,99.1,442.1,99.1z"/>
	<path class="st10" d="M469.5,99.1c-3,0-5.8-0.8-8.4-2.3c-2.6-1.5-4.7-3.7-6.4-6.6c-1.6-2.9-2.4-6.2-2.4-10.2s0.8-7.3,2.4-10.1
		c1.6-2.8,3.7-4.9,6.3-6.4c2.6-1.5,5.4-2.2,8.4-2.2c3,0,5.6,0.6,7.8,1.8c2.2,1.2,4,2.8,5.3,4.8c1.4,2,2.2,4.3,2.7,6.8
		c0.4,2.5,0.3,5.1-0.3,7.8h-23.6v-5.8h15.2l-1.7,1.1c0.1-0.8,0-1.7-0.1-2.6c-0.1-0.9-0.4-1.7-0.8-2.4c-0.4-0.7-0.9-1.3-1.6-1.8
		c-0.7-0.4-1.6-0.7-2.7-0.7c-1.2,0-2.3,0.3-3.2,0.9c-0.9,0.6-1.6,1.4-2.1,2.6c-0.5,1.1-0.7,2.5-0.7,4.1v4.5c0,1.5,0.2,2.8,0.6,3.9
		c0.4,1.1,1.1,2,1.9,2.6s1.9,0.9,3.2,0.9c1.1,0,2-0.2,2.8-0.6c0.8-0.4,1.3-1.1,1.7-2.1h11.5c-0.4,2.2-1.2,4.2-2.6,6
		s-3.2,3.2-5.5,4.3S472.4,99.1,469.5,99.1z"/>
	<path class="st10" d="M505.7,99.1c-3.1,0-6-0.8-8.6-2.3c-2.7-1.6-4.8-3.8-6.4-6.6c-1.6-2.8-2.4-6.1-2.4-9.9c0-4.2,0.8-7.6,2.4-10.4
		c1.6-2.8,3.8-4.9,6.4-6.3c2.7-1.4,5.5-2.1,8.6-2.1c2.6,0,4.9,0.4,6.9,1.3c2,0.9,3.6,2.1,4.9,3.5c1.3,1.4,2.3,3,2.9,4.8
		c0.6,1.7,1,3.4,1,5.1l-11.5-0.1c-0.2-1-0.6-2-1.2-2.8c-0.7-0.9-1.6-1.3-2.9-1.3c-1,0-2,0.3-2.9,0.8c-0.9,0.5-1.6,1.4-2.2,2.6
		c-0.6,1.2-0.8,2.9-0.8,5.1c0,2.1,0.3,3.8,0.8,5c0.6,1.2,1.3,2.1,2.2,2.6c0.9,0.5,1.9,0.8,2.9,0.8c1.6,0,2.7-0.4,3.3-1.1
		c0.6-0.8,0.8-1.7,0.8-2.9h11.5c0,2.5-0.6,4.9-1.7,7.1c-1.1,2.2-2.8,4-5.1,5.4S509.2,99.1,505.7,99.1z"/>
	<path class="st10" d="M538.9,99.1c-3.2,0-5.8-0.5-8-1.6c-2.2-1.1-3.8-2.5-4.9-4.3c-1.1-1.8-1.7-3.8-1.7-6.1c0-2.1,0.6-3.9,1.7-5.4
		c1.2-1.5,2.9-2.7,5.1-3.5c2.3-0.8,5.1-1.3,8.4-1.3c2,0,3.8,0.1,5.4,0.3c1.5,0.2,3.1,0.5,4.8,0.8v6.5c-1.2-0.3-2.4-0.5-3.7-0.6
		c-1.3-0.1-2.5-0.2-3.8-0.2c-1.7,0-3.1,0.3-4.1,0.8s-1.5,1.4-1.5,2.6c0,0.9,0.4,1.7,1.3,2.3c0.9,0.7,2.3,1,4.2,1
		c1.6,0,2.9-0.3,3.9-1c0.9-0.6,1.6-1.5,2-2.5c0.4-1,0.6-2,0.6-2.9h2.7c0,2.7-0.4,5.2-1.3,7.5c-0.9,2.3-2.2,4.1-4,5.5
		C544.1,98.4,541.8,99.1,538.9,99.1z M550.1,98l-1.5-9.5V75.2c0-1.8-0.3-3.2-1-4.1c-0.6-1-2-1.5-4.1-1.5c-1.2,0-2.3,0.2-3,0.6
		c-0.8,0.4-1.4,0.9-1.7,1.5c-0.4,0.6-0.6,1.3-0.6,2h-12.5c0-2.8,0.7-5.1,2-6.9c1.3-1.8,3.3-3.2,5.9-4.1c2.6-0.9,5.9-1.3,9.9-1.3
		c3.4,0,6.4,0.5,8.9,1.6c2.5,1.1,4.4,2.6,5.7,4.8c1.3,2.1,2,4.8,2,8V98H550.1z"/>
	<path class="st10" d="M583.9,98V49.6h31.5v10h-20v9.5h17.9v9.8h-17.9V98H583.9z"/>
	<path class="st10" d="M621.5,49.6h17.1c5,0,9.4,1,13.2,3c3.8,2,6.8,4.8,8.9,8.4c2.1,3.6,3.2,7.9,3.2,12.9c0,4.9-1.1,9.2-3.2,12.8
		c-2.2,3.6-5.1,6.4-8.9,8.4c-3.8,2-8.2,2.9-13.2,2.9h-17.1V49.6z M633,60.2v27.2h5.6c2.6,0,4.9-0.6,6.8-1.8c1.9-1.2,3.4-2.8,4.4-4.8
		c1-2,1.6-4.4,1.6-7c0-2.7-0.5-5.1-1.6-7.1c-1-2-2.5-3.6-4.4-4.8c-1.9-1.2-4.2-1.7-6.8-1.7H633z"/>
	<path class="st10" d="M669.4,49.6h17.1c5,0,9.4,1,13.2,3c3.8,2,6.8,4.8,8.9,8.4c2.1,3.6,3.2,7.9,3.2,12.9c0,4.9-1.1,9.2-3.2,12.8
		c-2.2,3.6-5.1,6.4-8.9,8.4c-3.8,2-8.2,2.9-13.2,2.9h-17.1V49.6z M680.9,60.2v27.2h5.6c2.6,0,4.9-0.6,6.8-1.8
		c1.9-1.2,3.4-2.8,4.4-4.8c1-2,1.6-4.4,1.6-7c0-2.7-0.5-5.1-1.6-7.1c-1-2-2.5-3.6-4.4-4.8c-1.9-1.2-4.2-1.7-6.8-1.7H680.9z"/>
</g>
</svg>
