<?xml version="1.0" encoding="utf-8"?>
<!-- Generator: Adobe Illustrator 26.3.0, SVG Export Plug-In . SVG Version: 6.00 Build 0)  -->
<svg version="1.1" id="Capa_1" xmlns="http://www.w3.org/2000/svg" xmlns:xlink="http://www.w3.org/1999/xlink" x="0px" y="0px"
	 viewBox="0 0 856.7 218" style="enable-background:new 0 0 856.7 218;" xml:space="preserve">
<style type="text/css">
	.st0{fill:#1E1E1E;}
	.st1{fill:#735657;}
	.st2{fill:#E8493F;}
	.st3{fill:#F5A142;}
	.st4{fill:#FFDE29;}
	.st5{fill:#52BED3;}
	.st6{fill:#7A6AAD;}
	.st7{fill:#40AF6F;}
	.st8{fill:none;}
</style>
<g>
	<g>
		<path class="st0" d="M328.8,121.2v50h-11.4v-28.4l-11.8,28.4h-10.4l-11.8-28.4v28.4H272v-50h14.3l14.1,33.2l14.1-33.2H328.8z"/>
		<path class="st0" d="M374.4,136.2v35h-11.1V168c-2.5,2.8-6.4,4.1-11.5,4.1c-3.1,0-5.9-0.7-8.2-2.1c-2.4-1.4-4.3-3.5-5.7-6.3
			c-1.4-2.8-2.1-6.1-2.1-10s0.7-7.2,2.1-10c1.4-2.8,3.3-4.9,5.7-6.3c2.4-1.4,5.2-2.1,8.2-2.1c5.1,0,9,1.4,11.5,4.1v-3.1L374.4,136.2
			L374.4,136.2z M362,160.6c1.5-1.6,2.2-3.9,2.2-6.9c0-3-0.8-5.3-2.2-6.9c-1.5-1.6-3.7-2.4-6.6-2.4c-2.9,0-5.1,0.8-6.6,2.4
			c-1.5,1.6-2.2,3.9-2.2,6.9s0.8,5.3,2.2,6.9c1.5,1.6,3.7,2.4,6.6,2.4C358.3,162.9,360.5,162.1,362,160.6z"/>
		<path class="st0" d="M411.1,137.4c1.7,1.5,2.8,4,3.2,7.5l-10.8,4.4c-0.1-1.5-0.4-2.6-1-3.4c-0.5-0.7-1.4-1.1-2.5-1.1
			c-2.8,0-4.8,1.6-6.2,4.9v21.5h-11.1v-35h11.1v4.6c1-1.7,2.4-3.1,4.2-4.1s3.8-1.5,5.8-1.5C407,135.2,409.4,135.9,411.1,137.4z"/>
		<path class="st0" d="M426.4,130.7c-2.2,0-3.9-0.5-5.1-1.5c-1.2-1-1.8-2.4-1.8-4.3s0.6-3.4,1.7-4.4s2.8-1.5,4.9-1.5
			c2.2,0,3.9,0.5,5,1.5s1.7,2.4,1.7,4.4c0,1.9-0.6,3.3-1.7,4.3C430.1,130.2,428.5,130.7,426.4,130.7z M420.6,136.2v35h11.1v-35
			H420.6z"/>
		<path class="st0" d="M469.5,170.1c-2.6,1.4-6,2-10.3,2c-6.3,0-11.2-1.6-14.5-4.8c-3.4-3.2-5-7.8-5-13.8s1.7-10.6,5-13.8
			c3.4-3.2,8.2-4.8,14.5-4.8c4.3,0,7.9,0.7,10.5,2s4.7,3.5,6.1,6.4l-10.1,3.9c-0.7-1.2-1.5-2-2.5-2.4c-1-0.4-2.3-0.6-4-0.6
			c-2.9,0-5.1,0.8-6.6,2.3s-2.2,3.9-2.2,6.9c0,3,0.8,5.3,2.2,6.9c1.5,1.6,3.7,2.4,6.6,2.4c1.7,0,3-0.2,3.9-0.7
			c0.9-0.4,1.8-1.3,2.6-2.5l10.1,3.9C474.3,166.6,472.1,168.8,469.5,170.1z"/>
		<path class="st0" d="M484.3,167.4c-3.4-3.2-5-7.8-5-13.8s1.7-10.6,5-13.8c3.4-3.2,8.2-4.8,14.5-4.8c6.3,0,11.2,1.6,14.5,4.8
			c3.4,3.2,5,7.8,5,13.8s-1.7,10.6-5,13.8c-3.4,3.2-8.2,4.8-14.5,4.8C492.5,172.2,487.7,170.6,484.3,167.4z M505.5,160.5
			c1.5-1.6,2.2-3.9,2.2-6.9s-0.8-5.3-2.2-6.9c-1.5-1.6-3.7-2.4-6.6-2.4c-2.9,0-5.1,0.8-6.6,2.3s-2.2,3.9-2.2,6.9
			c0,3,0.8,5.3,2.2,6.9c1.5,1.6,3.7,2.4,6.6,2.4C501.8,162.9,504,162.1,505.5,160.5z"/>
		<path class="st0" d="M549.2,145.2h-8.4v25.9h-11.1v-25.9h-8.2v-8.1h8.2v-16h11.1v16h8.4V145.2z"/>
		<path class="st0" d="M590,156.7h-27.3c0.5,2,1.4,3.5,2.9,4.6c1.5,1.1,3.4,1.6,5.7,1.6c3.3,0,5.7-1,7.2-3.1l10.2,3.9
			c-1.5,2.8-3.7,4.9-6.6,6.4c-2.9,1.4-6.5,2.1-10.8,2.1c-6.3,0-11.2-1.6-14.5-4.8s-5-7.8-5-13.8s1.7-10.6,5-13.8
			c3.4-3.2,8.2-4.8,14.5-4.8c12.5,0,18.7,6.2,18.7,18.5L590,156.7L590,156.7z M563,149.5h15.7c-0.5-1.7-1.3-3-2.5-3.8
			c-1.2-0.8-2.9-1.2-5-1.2C566.9,144.5,564.2,146.1,563,149.5z"/>
		<path class="st0" d="M624.4,170.1c-2.6,1.4-6,2-10.3,2c-6.3,0-11.2-1.6-14.5-4.8s-5-7.8-5-13.8s1.7-10.6,5-13.8s8.2-4.8,14.5-4.8
			c4.3,0,7.8,0.7,10.5,2s4.7,3.5,6.1,6.4l-10.1,3.9c-0.7-1.2-1.5-2-2.5-2.4c-1-0.4-2.3-0.6-4-0.6c-2.9,0-5.1,0.8-6.6,2.3
			s-2.2,3.9-2.2,6.9c0,3,0.8,5.3,2.2,6.9c1.5,1.6,3.7,2.4,6.6,2.4c1.7,0,3-0.2,3.9-0.7c0.9-0.4,1.8-1.3,2.6-2.5l10.1,3.9
			C629.1,166.6,627,168.8,624.4,170.1z"/>
		<path class="st0" d="M671.5,136.2v35h-11.1V168c-2.5,2.8-6.4,4.1-11.5,4.1c-3.1,0-5.8-0.7-8.2-2.1c-2.4-1.4-4.3-3.5-5.7-6.3
			c-1.4-2.8-2.1-6.1-2.1-10s0.7-7.2,2.1-10c1.4-2.8,3.3-4.9,5.7-6.3c2.4-1.4,5.2-2.1,8.2-2.1c5.1,0,9,1.4,11.5,4.1v-3.1L671.5,136.2
			L671.5,136.2z M659.1,160.6c1.5-1.6,2.2-3.9,2.2-6.9c0-3-0.8-5.3-2.2-6.9c-1.5-1.6-3.7-2.4-6.6-2.4s-5.1,0.8-6.6,2.4
			c-1.5,1.6-2.2,3.9-2.2,6.9s0.8,5.3,2.2,6.9c1.5,1.6,3.7,2.4,6.6,2.4C655.4,162.9,657.6,162.1,659.1,160.6z"/>
		<path class="st0" d="M721,131.5V145h20.2v10.4H721v15.9h-11.8v-50h38.4v10.4H721z"/>
		<path class="st0" d="M796.6,127.4c4.2,4.1,6.3,10.4,6.3,18.7c0,8.4-2.1,14.7-6.3,18.8s-10.4,6.2-18.5,6.2h-22.1v-50h22.2
			C786.2,121.2,792.4,123.2,796.6,127.4z M790.7,146.1c0-4.9-1.1-8.4-3.2-10.8c-2.1-2.3-5.3-3.5-9.5-3.5h-10.4v28.6h10.4
			C786.5,160.5,790.7,155.7,790.7,146.1z"/>
		<path class="st0" d="M850.4,127.4c4.2,4.1,6.3,10.4,6.3,18.7c0,8.4-2.1,14.7-6.3,18.8s-10.4,6.2-18.5,6.2h-22.2v-50h22.2
			C840,121.2,846.2,123.2,850.4,127.4z M844.5,146.1c0-4.9-1.1-8.4-3.2-10.8c-2.1-2.3-5.3-3.5-9.5-3.5h-10.4v28.6h10.4
			C840.3,160.5,844.5,155.7,844.5,146.1z"/>
	</g>
	<rect x="74" y="200" class="st1" width="90" height="18"/>
	<rect x="128" y="74" class="st2" width="90" height="18"/>
	<rect x="74" y="92" class="st3" width="90" height="18"/>
	<rect x="128" y="110" class="st4" width="90" height="18"/>
	<rect x="128" y="146" class="st5" width="90" height="18"/>
	<rect x="74" y="163.6" class="st6" width="90" height="18.5"/>
	<rect x="128" y="182" class="st0" width="90" height="18"/>
	<rect x="74" y="127.9" class="st7" width="90" height="18"/>
	<rect transform="matrix(-1 -1.224647e-16 1.224647e-16 -1 74.0213 74.0213)" class="st8" width="74" height="74"/>
</g>
</svg>
